# xmcd CD database file
# Generated: Sun Dec 29 11:58:42 2002 by KSCD
# 
# Track frame offsets:
#       150
#       16117
#       35299
#       54066
#       69650
#       89285
#       105762
#       129869
#       155096
#       176880
#       196317
#       215759
#       234674
#       252231
#       268130
#       285527
#       311374
#
# Disc length: 4377 seconds
#
# Revision: 15
# Processed by: cddbd v1.4PL0 Copyright (c) Steve Scherf et al.
# Submitted via: Kscd 1.3.3
#
DISCID=e3111711
DTITLE=Celine Dion - A New Day Has Come
DYEAR=1900
DGENRE=
TTITLE0=I'm Alive
TTITLE1=Right In Front Of You
TTITLE2=Have You Ever Been In Love
TTITLE3=Rain, Tax (It's Inevitable)
TTITLE4=A New Day Has Come (Radio Remix)
TTITLE5=Ten Days
TTITLE6=Goodbye's (The Saddest Word)
TTITLE7=Prayer
TTITLE8=I Surrender
TTITLE9=At Last
TTITLE10=Super Love
TTITLE11=Sorry For Love
TTITLE12=Aun Existe Amor
TTITLE13=The Greatest Reward
TTITLE14=When The Wrong One Loves You Right
TTITLE15=A New Day Has Come
TTITLE16=Nature Boy
EXTD=
EXTT0=
EXTT1=
EXTT2=
EXTT3=
EXTT4=
EXTT5=
EXTT6=
EXTT7=
EXTT8=
EXTT9=
EXTT10=
EXTT11=
EXTT12=
EXTT13=
EXTT14=
EXTT15=
EXTT16=
PLAYORDER=
